<?xml version="1.0" encoding="UTF-8"?>
<!DOCTYPE svg PUBLIC "-//W3C//DTD SVG 1.1//EN" "http://www.w3.org/Graphics/SVG/1.1/DTD/svg11.dtd">
<!-- Creator: CorelDRAW -->
<svg xmlns="http://www.w3.org/2000/svg" xml:space="preserve" width="162.137mm" height="34.6286mm" version="1.1" style="shape-rendering:geometricPrecision; text-rendering:geometricPrecision; image-rendering:optimizeQuality; fill-rule:evenodd; clip-rule:evenodd"
viewBox="0 0 259.41 55.4"
 xmlns:xlink="http://www.w3.org/1999/xlink"
 xmlns:xodm="http://www.corel.com/coreldraw/odm/2003">
 <defs>
  <style type="text/css">
   <![CDATA[
    .fil0 {fill:#FEFEFE}
    .fil2 {fill:#F48533}
    .fil1 {fill:#F58533}
    .fil3 {fill:#F58633}
   ]]>
  </style>
 </defs>
 <g id="Capa_x0020_1">
  <metadata id="CorelCorpID_0Corel-Layer"/>
  <g id="_2942843042816">
   <path class="fil0" d="M36.44 16.39c-0.25,1.07 0.01,6.13 -0,8.13 -0.01,1.1 0.14,1.61 0.14,2.71 -0.01,1.12 0.14,8.43 0.42,9.46 0.36,1.3 2.64,2.54 3.75,3.3 0.34,0.23 0.44,0.33 0.78,0.57 0.34,0.24 0.58,0.37 0.89,0.6l3.34 2.35c1.12,0.74 4.15,3.22 5.31,3.22 2.86,0 2.3,-2.86 2.31,-5.29 0,-0.94 -0.15,-1.32 -0.14,-2.3 0,-0.81 -0,-1.63 0,-2.44 0.01,-0.98 -0.14,-1.35 -0.14,-2.3 0,-0.81 0,-1.63 0,-2.44 0,-0.96 -0.1,-1.54 -0.14,-2.3 -0.08,-1.54 0.17,-3.18 -0.06,-4.68 -0.2,-1.32 0.02,-7.81 -0.5,-9.25 -1.06,-2.95 -4.64,-2 -6.87,-1.48l-9.1 2.14z"/>
   <path class="fil0" d="M-0 13l0 3.79 0 0.08c0,1.56 0.13,1.94 0.14,2.76 0.01,0.99 -0.01,2 -0.01,2.99 0,0.95 0.14,1.71 0.14,2.84 -0,2.07 0.14,3.7 0.13,5.83 -0,1.01 0.14,1.69 0.14,2.84 -0,3.2 -0.5,5.79 2.05,6.76 2.53,0.97 6.88,-0.49 9.85,-1.23 0.75,-0.19 1.55,-0.37 2.41,-0.57 1.92,-0.44 2.02,-0.15 2.1,-0.88l-0.42 -17.36c-0.04,-0.95 -0.39,-1.55 -0.91,-2.07l-1.69 -1.29c-0.61,-0.42 -1.16,-0.83 -1.73,-1.25 -1.21,-0.86 -7.82,-5.58 -9.02,-5.89 -0.81,-0.21 -1.75,0.23 -2.19,0.63 -0.51,0.47 -0.98,1.07 -0.98,2z"/>
   <path class="fil0" d="M5.55 7.18c0,1.79 0.94,2.05 2.96,3.54 1.16,0.85 2.28,1.64 3.49,2.47l5.28 3.66c2.18,1.52 2.72,1.14 5.88,0.35l9.05 -2.19c0.2,-0.05 1.79,-0.35 1.9,-0.4 0.51,-0.23 0.3,-0.43 0.3,-1.87 -0,-0.9 -0.04,-1.48 -0.12,-2.19 -0.19,-1.69 0.1,-6.76 -0.6,-8.48 -0.56,-1.4 -1.48,-1.95 -2.58,-2.07l-1.05 0c-0.89,0.08 -1.86,0.33 -2.81,0.57 -1.02,0.26 -2.21,0.51 -3.28,0.79 -5.06,1.28 -11.49,2.51 -16.34,3.85 -0.96,0.27 -2.09,0.86 -2.09,1.98z"/>
   <path class="fil0" d="M18.83 40.91l0.14 4.2c-0.01,1.53 0.1,7.03 0.52,8.28 0.47,1.41 1.4,1.92 2.49,2.01l0.79 0c1.01,-0.07 2.09,-0.39 3.02,-0.62l9.43 -2.22c2.07,-0.5 4.17,-0.97 6.23,-1.49 1.47,-0.37 4.47,-0.57 4.47,-3.25 0,-2.15 -3.02,-3.68 -5.07,-5.09l-2.55 -1.79c-6.09,-4.06 -3.43,-3.93 -12.62,-1.84l-6.85 1.81z"/>
   <path class="fil1" d="M201.57 22.35c0.25,0.29 0.79,1.82 0.93,2.19l2.59 7.02 -6.77 0c0.04,-0.5 0.62,-1.86 0.79,-2.32 0.3,-0.79 0.54,-1.54 0.82,-2.3l1.64 -4.59zm-12.33 19.1l5.42 0 1 -2.79c0.18,-0.55 0.33,-0.85 0.51,-1.39 0.17,-0.52 0.39,-0.94 0.53,-1.51l10.02 0c0.4,0.84 0.73,1.95 1.08,2.85 0.18,0.46 0.36,0.91 0.53,1.37 0.16,0.44 0.38,1.1 0.56,1.47l5.42 0 -7.39 -18.75c-0.44,-1.09 -0.83,-2 -1.23,-3.11 -0.21,-0.6 -0.39,-1 -0.61,-1.56 -0.19,-0.48 -0.43,-1.17 -0.66,-1.65l-5.55 0c-0.06,0.72 -7.57,19.63 -8.42,21.92l-1.2 3.14z"/>
   <path class="fil2" d="M18.83 38.2l3.77 -0.84c2.24,-0.56 7.59,-1.64 9.18,-2.6 3.25,-1.96 3.19,-5.19 2.91,-8.62 -0.13,-1.53 0.14,-3.19 -0.09,-4.66 -0.78,-5.15 2.98,-5.49 -7.8,-2.81 -4.79,1.19 -8.46,1.31 -8.38,8.02 0.01,0.82 0.15,1.31 0.15,2.3 -0.01,1.71 0.14,3.03 0.14,4.61 -0,0.77 0,1.54 -0,2.3 -0,0.99 0.14,1.41 0.14,2.3z"/>
   <path class="fil3" d="M225.41 27.77l-3.39 0 0 -7.18c2.09,0 5.84,-0.22 7.36,0.63 2.49,1.39 2.06,4.65 0.09,5.87 -0.81,0.5 -2.71,0.68 -4.06,0.68zm-8.4 13.68l5.01 0 0 -9.48c4.23,0 8.57,0.49 11.46,-1.68 4.38,-3.29 3.64,-12.21 -2.44,-13.57 -2.4,-0.54 -11.2,-0.32 -14.03,-0.32l0 25.06z"/>
   <path class="fil3" d="M248.71 27.77l-3.39 0 0 -7.18c2.09,0 5.84,-0.22 7.36,0.63 2.49,1.39 2.06,4.65 0.09,5.87 -0.81,0.5 -2.71,0.68 -4.06,0.68zm10.7 -5.15l0 2.23c-0.06,2.12 -0.5,4.02 -2.95,5.66 -2.87,1.92 -7.09,1.46 -11.14,1.46l0 9.48 -5.01 0 0 -25.06 10.3 0c2.73,0 4.52,0.24 6.14,1.45 1.2,0.9 2.67,2.78 2.67,4.78z"/>
   <path class="fil0" d="M76.54 38.47l-7.45 0 0 -8.53c2.29,0 7.6,-0.11 9.3,0.45 4.19,1.38 3.7,8.08 -1.85,8.08zm-1.35 -11.51l-6.1 0 0 -7.45c2.3,0 7.76,-0.32 9.39,0.63l0.82 0.67c1.05,1.3 2.12,6.15 -4.12,6.15zm-9.48 -10.16l0 24.38c0,0.31 0.09,0.41 0.41,0.41l8.94 0c2.67,0 5.21,-0.46 6.83,-1.57 4.04,-2.75 3.78,-10.44 -1.69,-11.71 0.22,-0.83 1.14,-0.42 2.2,-2.14 2.09,-3.39 0.74,-6.97 -1.84,-8.51 -2.99,-1.78 -10.26,-1.27 -14.44,-1.27 -0.31,0 -0.41,0.09 -0.41,0.41z"/>
   <path class="fil0" d="M125.71 38.47l-6.1 0 0 -18.96 6.1 0c4.27,0 6.53,1.96 7.43,5.58 0.83,3.38 0.41,8.18 -1.35,10.79 -1.2,1.77 -3.14,2.6 -6.07,2.6zm-9.48 -21.67l0 24.38c0,0.31 0.09,0.41 0.41,0.41 3.85,0 10.19,0.34 13.52,-0.71 1.55,-0.49 2.49,-1.15 3.59,-2.24 1.68,-1.68 3.22,-5.25 3.22,-8.57 0,-4.16 -0.16,-6.95 -2.72,-10.28 -0.36,-0.47 -0.41,-0.39 -0.83,-0.79 -2.69,-2.58 -5.84,-2.61 -9.85,-2.61l-6.91 0c-0.31,0 -0.41,0.09 -0.41,0.41z"/>
   <path class="fil0" d="M163.91 29.12c0,10.82 10.09,15.35 18.87,11.55 0.81,-0.35 4.3,-2.16 4.3,-2.88l0 -9.08 -10.57 0 0 2.98 7.32 0 0 4.33c0,0.65 -2.25,1.72 -2.9,1.98 -3.33,1.33 -6.83,1.19 -9.88,-0.71 -1.43,-0.89 -2.34,-2.32 -2.92,-3.86 -1.84,-4.91 -0.64,-14.48 7.97,-14.48 4,0 6.66,1.45 7.59,5.42 0.29,-0.14 2.6,-0.78 2.98,-0.81 -0.02,-0.89 -0.77,-2.53 -1.16,-3.18 -0.35,-0.57 -0.44,-0.8 -0.9,-1.26 -1.79,-1.8 -3.15,-2.45 -5.87,-2.94 -2.46,-0.44 -5.24,-0.1 -7.49,0.76 -5.02,1.9 -7.33,7.09 -7.33,12.17z"/>
   <path class="fil0" d="M100.51 39.01c-3.55,0 -6.1,-1.3 -7.59,-4.06 -2.12,-3.93 -1.63,-9.83 0.54,-12.87 3.28,-4.58 13.54,-5.03 14.99,4.8 0.21,1.42 0.18,2.65 0.03,4.13 -0.43,4.33 -3.48,8.01 -7.97,8.01zm-12.33 -10.7c0,2.84 -0.02,3.89 1.1,6.62 0.54,1.3 1.35,2.55 2.32,3.51 2.2,2.18 4.9,3.56 8.23,3.56 3.14,0 6.43,-1.12 8.64,-3.28 1.03,-1.01 1.8,-2.26 2.38,-3.58 1.93,-4.36 1.54,-9.91 -0.9,-13.96 -0.71,-1.17 -1.8,-2.32 -2.91,-3.05 -0.64,-0.42 -1.12,-0.78 -1.88,-1.1 -7.99,-3.35 -16.97,1.57 -16.97,11.28z"/>
   <path class="fil0" d="M141.56 16.8l0 24.38c0,0.31 0.09,0.41 0.41,0.41l18.29 0 0 -3.12 -15.31 0 0 -8.4 13.82 0 0 -2.98 -13.82 0 0 -7.59 14.77 0c0,-1.87 0.28,-3.12 -0.41,-3.12l-17.34 0c-0.31,0 -0.41,0.09 -0.41,0.41z"/>
   <path class="fil0" d="M17.07 41.32c-1.07,0 -2.1,0.32 -2.98,0.54 -2.22,0.56 -10.44,2.4 -11.57,2.93 -2.15,1.02 0.22,2.12 2.08,3.44l6.37 4.47c1.17,0.82 3.14,2.65 5.02,1.49 2.23,-1.38 1.2,-5.78 1.22,-9.35 0,-1.29 -0.14,-2.15 -0.14,-3.52z"/>
   <path class="fil0" d="M36.17 12.33l0 1.63c1.04,0 2.8,-0.46 3.77,-0.7 1.15,-0.29 2.59,-0.65 3.72,-0.89 1.25,-0.26 6.56,-1.45 7.28,-1.93 -0.07,-0.86 -1.81,-1.85 -2.79,-2.49l-7.97 -5.58c-1.33,-0.98 -3.08,-1.43 -3.95,0.41 -0.35,0.74 -0.41,1.97 -0.25,2.98l0.19 6.58z"/>
  </g>
 </g>
</svg>
